<svg id="Layer_1" data-name="Layer 1" xmlns="http://www.w3.org/2000/svg" viewBox="0 0 1206 371.84"><defs><style>.cls-1,.cls-14{fill:#3d3d66;}.cls-2{fill:#5b5b99;}.cls-10,.cls-11,.cls-12,.cls-13,.cls-14,.cls-2,.cls-3,.cls-4,.cls-5,.cls-6,.cls-7,.cls-8,.cls-9{fill-rule:evenodd;}.cls-3{fill:#6b6bb2;}.cls-4{fill:#8989e5;}.cls-5{fill:#29b0a4;}.cls-6{fill:#32dac8;}.cls-7{fill:#b7b7ff;}.cls-8{fill:#99f;}.cls-9{fill:#ccf;}.cls-10{fill:#fff;}.cls-11{fill:#a3a3ff;}.cls-12{fill:#adadff;}.cls-13{fill:#d6d6ff;}</style></defs><path class="cls-1" d="M428.87,112.72c-1.41-3.09-.56-4.5,2.81-4.78,19.7-1.69,45-15.48,63.87-16.6,14.35-.85,28.14,3.66,33.21,22.79,5.06,18.85-.29,34.61-9.85,47A115.37,115.37,0,0,1,475,194.6a33.79,33.79,0,0,1,13.51,11.82c5.91,8.72,5.63,25.32-6.47,38.55-12.38,13.5-33.48,23.35-49.24,26.16-10.69,2-17.45,1.69-23.64-1.4a39.62,39.62,0,0,1-14.35-13c-4.22-6.19-7-10.69-.56-28.7C405.52,196.57,426.9,155.49,448,124,436.75,123.42,430.84,117.23,428.87,112.72Zm16,90c-7.88.84-13.51,0-17.45-2-7.59,14.63-14.63,29.55-18.85,43.61-3.09,9.85,0,13.23,9,12.1,18-2.25,42.21-13.79,54.31-28.7,10.41-12.94,10.41-25.6-15.2-27C452.79,201.64,448.85,202.2,444.91,202.76Zm73.43-86.1c-5.62-14.63-33.48-1.69-52.89,4.5.56,6.19-1.41,14.63-8.44,27.58-5.63,10.41-13.79,23.63-21.95,38C490.77,173.78,525.38,135.79,518.34,116.66Z"/><path class="cls-1" d="M536.08,263.54c13.5,1.12,33.2-19.14,44.17-40.8,2-3.66,5.06-3.94,6.19,0,1.41,4.5.28,10.69-2.81,17.44-3.94,8.44-24.48,31.8-47,31.23-19.42-.56-29.83-14.06-23.35-44.45,10.41-49,42.48-99.89,71.18-129.71,4.22-4.5,8.16-5.07,12.1-1.41,8.16,7.32,9.85,17.73,6.47,31-8.72,34.61-40.23,68.37-65.28,84.69C526.51,239.06,523.41,262.41,536.08,263.54Zm57.4-142.66c-3.66-2.25-24.48,29-43.9,65q-3.8,6.75-6.75,13.5C581.38,168.15,597.13,123.13,593.48,120.88Z"/><path class="cls-1" d="M613.45,264.1c23.36,1.13,43.9-21.39,56-40,1.4-2.26,3.65-2.26,4.78.28,1.12,2.25.28,10.13-4.78,17.44C657.63,259,636,272,614.3,272.26c-35.74.56-48.12-34.61-29.83-70.91s47-50.92,61.06-42.76c7,4.22,12.1,8.44,16.6,14.63,5.06,6.75,2.81,23.91-9,38.26-13.78,16.89-32.63,24.2-52.33,8.16C591.79,245.53,598.54,263.26,613.45,264.1Zm23.36-64.72c9-11.81,15.19-26.44,11.25-29.54-5.91-4.78-29.26,12.1-42.49,38.83-.84,1.69-1.68,3.38-2.25,4.78C617.11,222.18,628.65,210.08,636.81,199.38Z"/><path class="cls-1" d="M706.87,173.22c1.41-11,4.22-16.32,10.13-21.67,6.19-5.63,12.66-6.75,15.19-4.22,2.82,2.82,1.41,5.91-2.25,12.38-1.12,1.69-2,3.38-3.09,5.35-2,25.88,3.37,47.83,2.53,67.24-.56,11-2.53,22.8-12.66,29.55,18.85-7,30.67-23.92,37.7-39.11,1.41-3.1,4.22-2.25,5.35,0,1.12,2.53.84,9.85-3.94,18.57A59.31,59.31,0,0,1,706,272.26c-16.32.56-32.08-3.66-41.65-21.1-6.75-12.67-5.9-31.24,3.66-39.11,3.38-2.82,5.63-1.69,5.91,2.81.28,2.25.28,4.5.56,6.75C686.05,205.86,698.71,187.57,706.87,173.22ZM677,236.81c4.22,16.32,12.39,27.85,21.67,25,12.94-3.94,8.72-48.12,7.6-70.62C698.15,206.14,687.74,221.61,677,236.81Z"/><path class="cls-1" d="M791.84,173.22c1.41-11,4.22-16.32,10.13-21.67,6.19-5.63,12.66-6.75,15.19-4.22,2.82,2.82,1.41,5.91-2.25,12.38-1.12,1.69-2,3.38-3.09,5.35-2,25.88,3.37,47.83,2.53,67.24-.56,11-2.53,22.8-12.66,29.55,18.85-7,30.67-23.92,37.7-39.11,1.41-3.1,4.22-2.25,5.35,0,1.12,2.53.84,9.85-3.94,18.57A59.31,59.31,0,0,1,791,272.26c-16.32.56-32.08-3.66-41.64-21.1-6.76-12.67-5.91-31.24,3.65-39.11,3.38-2.82,5.63-1.69,5.91,2.81.28,2.25.28,4.5.56,6.75C771,205.86,783.68,187.57,791.84,173.22ZM762,236.81c4.22,16.32,12.38,27.85,21.66,25,13-3.94,8.72-48.12,7.6-70.62C783.12,206.14,772.71,221.61,762,236.81Z"/><path class="cls-1" d="M834,230.9c7-20.54,25.61-53.74,36-68.37,2.53-3.38,4.5-4.23,6.75-1.69,4.22,4.5,6.48,16.6-.28,30.67-5.91,12.38-17.72,31.51-23.63,45.58-6.76,16.32-6.19,27.29,2.81,26.73,12.66-.56,28.14-19.14,36.58-38.55,1.41-2.53,3.38-2.25,4.5,0,2.25,4.5,1.41,10.41-2,17.44C886.38,260.16,868.65,272,852.9,272,831.51,272,826.17,254,834,230.9Zm62.75-73.44c-3.66,3.94-11.53,3.1-15.76-4.22-4.5-7.6-3.09-16,1.41-20.82s12.66-1.41,16.32,6.19C902.42,145.92,900.45,153.52,896.79,157.46Z"/><path class="cls-1" d="M976.14,157.46c9.28,1.41,18,15.19,11,29.83-5.91,12.38-19.7,33.2-26.17,47.83-7.31,16.32-5.63,29.54,4.5,29,11.54-.56,25.33-19.13,36-38.83,1.41-2.53,3.38-2.53,4.78-.28,2,3.09,1.41,9.57-2.53,17.72-7.6,15.76-25.32,30.11-41.64,30.11-23.92,0-29.55-17.44-21.39-41.92,9.29-27.58,34.05-57.4,29-59.65-2.81-1.13-19.13,6.75-37.14,26.45-16.6,18-29,45-41.08,71.46-1.12,2.54-2.81,3.66-5.34,1.13-5.63-5.63-7.32-14.91-2.82-29,5.63-17.73,27.3-56.84,45-83,2-3.09,4.22-2.81,5.91,0,4.22,7,3.94,16.6.85,26.74C947.72,171.53,966.85,156.05,976.14,157.46Z"/><path class="cls-1" d="M1059.7,279.29c-15.47,37.71-35.45,82.44-58.24,91.45-5.63,2.25-11.26,1.41-16.32-5.91-5.91-8.44-11-18.29-5.63-34.89,8.16-25.32,32.36-42.49,60.21-53.18,2.82-6.19,5.35-12.94,8.16-19.41-8.16,8.16-18,14.06-28.41,14.06-25.89,0-31-35.17-8.16-68.93,21.94-32.64,44.73-45.3,59.08-45.3,11.26,0,16.89,8.72,16.6,18.57,3.38-5.63,6.48-10.69,9.29-15.48,2.25-3.93,5.06-4.22,7-1.68,4.22,5.06,6.47,17.16-.56,30.95-8.44,16.88-26.17,50.92-38,78.22a140.4,140.4,0,0,0,50.36-42.21c1.69-2.25,4.22-2.25,4.78.56.57,2.54-.84,8.73-5.62,16.32C1103.31,259.6,1083.06,270.85,1059.7,279.29ZM990.77,355c3.65,5.35,25.88-23.91,44.17-66.68C998.36,309.68,986,348.23,990.77,355Zm83.84-183.45c-8.72-.56-29.26,17.44-44.73,41.92-15.2,24.2-18.29,49-7,49.24,11,.28,25.33-17.44,39.68-42.2C1080.24,189.54,1082.77,172.09,1074.61,171.53Z"/><path class="cls-1" d="M1152.55,173.22c1.41-11,4.22-16.32,10.13-21.67,6.19-5.63,12.66-6.75,15.2-4.22,2.81,2.82,1.4,5.91-2.25,12.38-1.13,1.69-2,3.38-3.1,5.35-2,25.88,3.38,47.83,2.53,67.24-.56,11-2.53,22.8-12.66,29.55,18.85-7,30.67-23.92,37.71-39.11,1.4-3.1,4.22-2.25,5.34,0,1.13,2.53.84,9.85-3.94,18.57a59.3,59.3,0,0,1-49.8,30.95c-16.32.56-32.08-3.66-41.64-21.1-6.76-12.67-5.91-31.24,3.66-39.11,3.37-2.82,5.62-1.69,5.9,2.81.29,2.25.29,4.5.57,6.75C1131.73,205.86,1144.39,187.57,1152.55,173.22Zm-29.82,63.59c4.22,16.32,12.38,27.85,21.66,25,12.95-3.94,8.73-48.12,7.6-70.62C1143.83,206.14,1133.42,221.61,1122.73,236.81Z"/><path class="cls-2" d="M217.34,113.76a28.54,28.54,0,0,0-.49-18.6,28.34,28.34,0,0,0-13.93,12.32,40.51,40.51,0,0,0,14.42,6.28Z"/><path class="cls-3" d="M202.92,107.48a28.34,28.34,0,0,1,13.93-12.32c-2.92-8.22-8.85-15.4-13.51-22.64-6,3.48-11,9.19-14.07,18.94a40.15,40.15,0,0,0,13.65,16Z"/><path class="cls-4" d="M203.34,72.52c4.66,7.24,10.59,14.42,13.51,22.64,8-3.49,17.28-4,25.71-5.58-2-8.84-7.88-16.37-13-23.82-8.92,1.39-18.39,2.23-26.26,6.76Z"/><path class="cls-5" d="M189.27,91.46c3.06-9.75,8.08-15.46,14.07-18.94-4.25-6.62-7.45-13.31-6.48-21A52.12,52.12,0,0,0,185,68.27c-.77,6.2.14,13.09,3.13,20.69a27.06,27.06,0,0,0,1.12,2.5Z"/><path class="cls-6" d="M185,68.27a52.12,52.12,0,0,1,11.84-16.79,27.29,27.29,0,0,1,3.76-10.17c-8.36,7.31-14.42,16.16-15.6,27Z"/><path class="cls-7" d="M196.86,51.48c8.08-7.66,17.83-12.47,26.89-16.58a48.44,48.44,0,0,1,9.75-13.23C222,26.75,209.89,33.09,200.62,41.31a27.29,27.29,0,0,0-3.76,10.17Z"/><path class="cls-8" d="M223.75,34.9c-9.06,4.11-18.81,8.92-26.89,16.58-1,7.73,2.23,14.42,6.48,21,7.87-4.53,17.34-5.37,26.26-6.76-6.34-9.4-11.42-18.81-5.85-30.86Z"/><path class="cls-8" d="M223.75,34.9c-5.57,12.05-.49,21.46,5.85,30.86C240.89,64,251.19,61.3,256.14,49c-4-11.84-8.15-22.22-6-30.44-4.6,7.24-15,11.21-26.4,16.37Z"/><path class="cls-9" d="M223.75,34.9c11.42-5.16,21.8-9.13,26.4-16.37A15.41,15.41,0,0,1,252,14.14c-5.57,2.16-11.91,4.67-18.53,7.53a48.44,48.44,0,0,0-9.75,13.23Z"/><path class="cls-9" d="M250.15,18.53c-2.16,8.22,1.95,18.6,6,30.44a48.82,48.82,0,0,0,3-16.16c-2.37-6.76-4.88-13.16-7.11-18.67a17.31,17.31,0,0,1-1.88,4.39Z"/><path class="cls-7" d="M259.14,32.81a48.82,48.82,0,0,1-3,16.16c3.2,9.48,6.34,19.85,6.27,30.93a27.54,27.54,0,0,0,4.88-9.68c-.35-12.33-4-25.5-8.15-37.41Z"/><path class="cls-8" d="M256.14,49c-4.95,12.33-15.25,15-26.54,16.79,5.08,7.45,10.94,15,13,23.82,7.8-1.39,14.9-3.62,19.85-9.68.07-11.08-3.07-21.45-6.27-30.93Z"/><path class="cls-5" d="M262.41,79.9c-5,6.06-12.05,8.29-19.85,9.68,1.6,6.76.9,14.28-4.18,23.2.83-.28,1.74-.56,2.57-.91,7.6-3,13.24-7,17.35-11.84a53.5,53.5,0,0,0,4.11-20.13Z"/><path class="cls-3" d="M238.38,112.78c5.08-8.92,5.78-16.44,4.18-23.2-8.43,1.54-17.7,2.09-25.71,5.58a28.54,28.54,0,0,1,.49,18.6,40.21,40.21,0,0,0,11.21.9,52.35,52.35,0,0,0,5.79-.77,25.7,25.7,0,0,0,4-1.11Z"/><path class="cls-6" d="M262.41,79.9A53.5,53.5,0,0,1,258.3,100c7-8.22,9.33-18.67,9-29.81a27.54,27.54,0,0,1-4.88,9.68Z"/><path class="cls-9" d="M250.15,18.53A17.31,17.31,0,0,0,252,14.14a15.41,15.41,0,0,0-1.88,4.39Z"/><path class="cls-10" d="M251.33,56.7c-5.5,5.92-13.37,7.74-21.73,9.06-8.92,1.39-18.39,2.23-26.26,6.76a28.32,28.32,0,0,0-10.59,10.86c18.67-23.68,47.37-9.54,58.58-26.68Z"/><path class="cls-10" d="M221.59,43.75c-.56,8.08,3.48,15,8.22,22.08,5,7.52,10.94,15,12.95,23.82a29.19,29.19,0,0,1-.62,15.19c4.53-29.89-25.43-41.17-20.55-61.09Z"/><path class="cls-11" d="M229.88,65.69c-.07.07-.07.07-.14.07a.07.07,0,0,0,.07.07c.21.35.42.63.63,1,8.63-1.25,16.3-3,20.89-10.1-5.43,5.85-13.16,7.74-21.45,9Z"/><path class="cls-11" d="M229.6,65.62c.07,0,.07.07.14.14h-.14l-1.12.21c-5-7.25-8.91-14-6.89-22.22-.56,8,3.34,14.9,8,21.87Z"/><path class="cls-2" d="M255.09,158.82a28.77,28.77,0,0,0,12.82-13.51,28.31,28.31,0,0,0-18.6-1.11,40.35,40.35,0,0,0,5.78,14.62Z"/><path class="cls-3" d="M249.31,144.2a28.31,28.31,0,0,1,18.6,1.11c3.7-7.87,4.6-17.14,6.41-25.49-6.69-1.81-14.28-1.4-23.33,3.34a39.66,39.66,0,0,0-1.68,21Z"/><path class="cls-4" d="M274.32,119.82c-1.81,8.35-2.71,17.62-6.41,25.49,8.08,3.21,15,9.34,22.08,14.21,4.81-7.66,6-17.13,7.67-26-7.32-5.3-14.56-11.43-23.34-13.72Z"/><path class="cls-5" d="M251,123.16c9.05-4.74,16.64-5.15,23.33-3.34,1.67-7.74,4.11-14.77,10.31-19.51a53.57,53.57,0,0,0-20.27,3.41c-4.88,3.9-9.13,9.41-12.4,16.93-.35.84-.7,1.67-1,2.51Z"/><path class="cls-6" d="M264.36,103.72a53.57,53.57,0,0,1,20.27-3.41,27.28,27.28,0,0,1,9.89-4.6c-11.14-.69-21.66,1.33-30.16,8Z"/><path class="cls-7" d="M284.63,100.31c11.15.28,21.39,3.76,30.72,7.31a47.77,47.77,0,0,1,16.23-2.43c-11.7-4.6-24.8-8.71-37.06-9.48a27.28,27.28,0,0,0-9.89,4.6Z"/><path class="cls-8" d="M315.35,107.62c-9.33-3.55-19.57-7-30.72-7.31-6.2,4.74-8.64,11.77-10.31,19.51,8.78,2.29,16,8.42,23.34,13.72,2.16-11.15,5.22-21.39,17.69-25.92Z"/><path class="cls-8" d="M315.35,107.62c-12.47,4.53-15.53,14.77-17.69,25.92,9.26,6.69,18.46,12.12,30.65,6.89,5.5-11.21,9.89-21.45,17.27-25.77-8.29,1.88-18.53-2.65-30.23-7Z"/><path class="cls-9" d="M315.35,107.62c11.7,4.39,21.94,8.92,30.23,7a14.54,14.54,0,0,1,4.46-1.74c-5.43-2.44-11.77-5.16-18.46-7.73a47.77,47.77,0,0,0-16.23,2.43Z"/><path class="cls-9" d="M345.58,114.66c-7.38,4.32-11.77,14.56-17.27,25.77a47.78,47.78,0,0,0,13.58-9.33c3.07-6.41,5.78-12.75,8.15-18.18a14.34,14.34,0,0,1-4.46,1.74Z"/><path class="cls-7" d="M341.89,131.1a47.78,47.78,0,0,1-13.58,9.33c-4.39,8.92-9.55,18.53-17.49,26.34a27.48,27.48,0,0,0,10.38-3.42c8.43-9,15.19-20.83,20.69-32.25Z"/><path class="cls-8" d="M328.31,140.43c-12.19,5.23-21.39-.2-30.65-6.89-1.67,8.85-2.86,18.32-7.67,26,6.48,4.53,13.1,8,20.83,7.25,7.94-7.81,13.1-17.42,17.49-26.34Z"/><path class="cls-5" d="M310.82,166.77c-7.73.76-14.35-2.72-20.83-7.25-3.69,5.92-9.47,10.8-19.36,13.51a24.79,24.79,0,0,0,2.44,1.12c7.52,3.27,14.35,4.39,20.62,3.9a52.56,52.56,0,0,0,17.13-11.28Z"/><path class="cls-3" d="M270.63,173c9.89-2.71,15.67-7.59,19.36-13.51-7-4.87-14-11-22.08-14.21a28.77,28.77,0,0,1-12.82,13.51,40,40,0,0,0,7.25,8.57A47,47,0,0,0,267,171a37.21,37.21,0,0,0,3.62,2.08Z"/><path class="cls-6" d="M310.82,166.77a52.56,52.56,0,0,1-17.13,11.28c10.79-.84,19.85-6.62,27.51-14.7a27.48,27.48,0,0,1-10.38,3.42Z"/><path class="cls-9" d="M345.58,114.66a14.34,14.34,0,0,0,4.46-1.74,14.54,14.54,0,0,0-4.46,1.74Z"/><path class="cls-10" d="M319.46,142.52c-8.08.28-14.91-4-21.8-9-7.32-5.3-14.56-11.43-23.34-13.72a28,28,0,0,0-15.18.06c30-3.48,40.26,26.82,60.32,22.64Z"/><path class="cls-10" d="M307.55,112.29c-6.06,5.3-8.22,13.1-9.82,21.46-1.67,8.84-2.86,18.32-7.66,26A27.65,27.65,0,0,1,278.92,170c24.31-17.83,11.07-47,28.63-57.68Z"/><path class="cls-11" d="M297.94,133.75c-.08-.07-.14-.07-.14-.14s-.07.07-.07.14c-.07.34-.14.69-.21,1.11,7,5.23,13.65,9.4,21.94,7.66-8,.28-14.77-3.89-21.52-8.77Z"/><path class="cls-11" d="M297.8,133.47v.14c-.07,0-.07,0-.14-.07-.28-.21-.63-.42-.91-.63,1.53-8.64,3.55-16.23,10.8-20.62-6,5.3-8.15,13-9.75,21.18Z"/><path class="cls-2" d="M249.87,217.34a28.77,28.77,0,0,0,18.67-.49,28.87,28.87,0,0,0-12.4-13.93,40.67,40.67,0,0,0-6.27,14.42Z"/><path class="cls-3" d="M256.14,202.92a28.87,28.87,0,0,1,12.4,13.93c8.15-2.92,15.32-8.84,22.57-13.51-3.48-6-9.13-11-18.95-14.07a40.22,40.22,0,0,0-16,13.65Z"/><path class="cls-4" d="M291.11,203.34c-7.25,4.67-14.42,10.59-22.57,13.51,3.41,8,4,17.28,5.5,25.71,8.85-2,16.37-7.88,23.82-13-1.39-8.92-2.22-18.39-6.75-26.26Z"/><path class="cls-5" d="M272.16,189.27c9.82,3.06,15.47,8.08,18.95,14.07,6.62-4.25,13.3-7.45,21-6.48A52.68,52.68,0,0,0,295.43,185c-6.27-.77-13.17.14-20.76,3.13-.84.35-1.67.7-2.51,1.12Z"/><path class="cls-6" d="M295.43,185a52.68,52.68,0,0,1,16.72,11.84,28.09,28.09,0,0,1,10.24,3.76c-7.39-8.36-16.23-14.42-27-15.6Z"/><path class="cls-7" d="M312.15,196.86c7.66,8.08,12.47,17.83,16.58,26.89A48.44,48.44,0,0,1,342,233.5c-5.08-11.49-11.42-23.61-19.57-32.88a28.09,28.09,0,0,0-10.24-3.76Z"/><path class="cls-8" d="M328.73,223.75c-4.11-9.06-8.92-18.81-16.58-26.89-7.74-1-14.42,2.23-21,6.48,4.53,7.87,5.36,17.34,6.75,26.26,9.48-6.34,18.88-11.42,30.87-5.85Z"/><path class="cls-8" d="M328.73,223.75c-12-5.57-21.39-.49-30.87,5.85,1.82,11.29,4.54,21.59,16.79,26.54,11.92-4,22.23-8.15,30.45-6-7.18-4.6-11.22-15-16.37-26.4Z"/><path class="cls-9" d="M328.73,223.75c5.15,11.42,9.19,21.8,16.37,26.4a15,15,0,0,1,4.45,1.88c-2.22-5.57-4.73-11.91-7.59-18.53a48.44,48.44,0,0,0-13.23-9.75Z"/><path class="cls-9" d="M345.1,250.15c-8.22-2.16-18.53,1.95-30.45,6a49.25,49.25,0,0,0,16.16,3c6.76-2.37,13.17-4.88,18.74-7.11a16.69,16.69,0,0,1-4.45-1.88Z"/><path class="cls-7" d="M330.81,259.14a49.25,49.25,0,0,1-16.16-3c-9.4,3.21-19.78,6.34-30.93,6.27a27.59,27.59,0,0,0,9.69,4.88c12.33-.35,25.49-4,37.4-8.15Z"/><path class="cls-8" d="M314.65,256.14c-12.25-4.95-15-15.25-16.79-26.54-7.45,5.08-15,10.94-23.82,13,1.47,7.8,3.63,14.9,9.68,19.85,11.15.07,21.53-3.06,30.93-6.27Z"/><path class="cls-5" d="M283.72,262.41c-6.05-5-8.21-12.05-9.68-19.85-6.75,1.6-14.28.9-23.19-4.18.28.83.55,1.74.9,2.57,3,7.6,7,13.24,11.84,17.35a53.57,53.57,0,0,0,20.13,4.11Z"/><path class="cls-3" d="M250.85,238.38c8.91,5.08,16.44,5.78,23.19,4.18-1.53-8.43-2.09-17.7-5.5-25.71a28.77,28.77,0,0,1-18.67.49,42.61,42.61,0,0,0-.9,11.21,44.81,44.81,0,0,0,1.88,9.83Z"/><path class="cls-6" d="M283.72,262.41a53.57,53.57,0,0,1-20.13-4.11c8.22,7,18.67,9.33,29.82,9a27.59,27.59,0,0,1-9.69-4.88Z"/><path class="cls-9" d="M345.1,250.15a16.69,16.69,0,0,0,4.45,1.88,15,15,0,0,0-4.45-1.88Z"/><path class="cls-10" d="M306.92,251.33c-5.92-5.5-7.73-13.37-9.06-21.73-1.39-8.92-2.22-18.39-6.75-26.26a28.13,28.13,0,0,0-10.8-10.59c23.69,18.67,9.48,47.37,26.61,58.58Z"/><path class="cls-10" d="M319.88,221.59c-8.08-.56-15.05,3.48-22.08,8.22-7.46,5-15,10.93-23.83,12.95a28.87,28.87,0,0,1-15.11-.62c29.81,4.53,41.1-25.43,61-20.55Z"/><path class="cls-11" d="M297.94,229.88c0-.07-.08-.07-.08-.14a.06.06,0,0,0-.06.07c-.35.21-.63.42-1,.63,1.33,8.63,3.07,16.3,10.1,20.89-5.85-5.43-7.66-13.16-9-21.45Z"/><path class="cls-11" d="M298,229.6c0,.07-.07.07-.15.14v-.14a7.14,7.14,0,0,1-.13-1.11c7.17-5,13.93-8.92,22.15-6.9-7.94-.56-14.91,3.34-21.87,8Z"/><path class="cls-2" d="M204.8,255.1a28.79,28.79,0,0,0,13.51,12.81,28.74,28.74,0,0,0,1.19-18.6,40.08,40.08,0,0,0-14.7,5.79Z"/><path class="cls-3" d="M219.5,249.31a28.74,28.74,0,0,1-1.19,18.6c7.88,3.7,17.14,4.6,25.57,6.41,1.74-6.69,1.32-14.28-3.42-23.33a39.36,39.36,0,0,0-21-1.68Z"/><path class="cls-4" d="M243.88,274.32c-8.43-1.81-17.69-2.71-25.57-6.41C215.11,276,209,283,204.1,290c7.67,4.81,17.14,6,26,7.67,5.29-7.32,11.42-14.56,13.79-23.34Z"/><path class="cls-5" d="M240.46,251c4.74,9.05,5.16,16.64,3.42,23.33,7.66,1.67,14.7,4.11,19.44,10.31a53.39,53.39,0,0,0-3.42-20.27c-3.9-4.88-9.4-9.13-16.92-12.4-.84-.35-1.68-.7-2.52-1Z"/><path class="cls-6" d="M259.9,264.36a53.39,53.39,0,0,1,3.42,20.27,27.28,27.28,0,0,1,4.59,9.89c.7-11.14-1.25-21.66-8-30.16Z"/><path class="cls-7" d="M263.32,284.63c-.28,11.15-3.77,21.39-7.25,30.72,1.53,4.25,2.37,9.54,2.44,16.23,4.53-11.7,8.64-24.8,9.4-37.06a27.28,27.28,0,0,0-4.59-9.89Z"/><path class="cls-8" d="M256.07,315.35c3.48-9.33,7-19.57,7.25-30.72-4.74-6.2-11.78-8.64-19.44-10.31-2.37,8.78-8.5,16-13.79,23.34,11.21,2.16,21.45,5.22,26,17.69Z"/><path class="cls-8" d="M256.07,315.35c-4.53-12.47-14.77-15.53-26-17.69-6.69,9.26-12.12,18.46-6.9,30.65,11.29,5.5,21.53,9.89,25.78,17.27-1.89-8.29,2.64-18.53,7.1-30.23Z"/><path class="cls-9" d="M256.07,315.35c-4.46,11.7-9,21.94-7.1,30.23a14.67,14.67,0,0,1,1.8,4.46c2.38-5.43,5.09-11.77,7.74-18.46-.07-6.69-.91-12-2.44-16.23Z"/><path class="cls-9" d="M249,345.58c-4.25-7.38-14.49-11.77-25.78-17.27a48,48,0,0,0,9.34,13.58c6.47,3.06,12.74,5.78,18.24,8.15a14.47,14.47,0,0,1-1.8-4.46Z"/><path class="cls-7" d="M232.53,341.89a48,48,0,0,1-9.34-13.58c-8.92-4.39-18.53-9.55-26.26-17.49a26.08,26.08,0,0,0,3.34,10.38c9,8.43,20.9,15.19,32.26,20.69Z"/><path class="cls-8" d="M223.19,328.31c-5.22-12.19.21-21.39,6.9-30.65-8.85-1.67-18.32-2.86-26-7.67-4.52,6.48-7.94,13.1-7.17,20.83,7.73,7.94,17.34,13.1,26.26,17.49Z"/><path class="cls-5" d="M196.93,310.82c-.77-7.73,2.65-14.35,7.17-20.83-5.92-3.69-10.72-9.47-13.51-19.36-.35.76-.77,1.6-1.11,2.44-3.28,7.52-4.39,14.35-3.9,20.62a51.3,51.3,0,0,0,11.35,17.13Z"/><path class="cls-3" d="M190.59,270.63c2.79,9.89,7.59,15.67,13.51,19.36,4.88-7,11-14,14.21-22.08A28.79,28.79,0,0,1,204.8,255.1a38.16,38.16,0,0,0-8.5,7.24,32.28,32.28,0,0,0-3.55,4.67c-.77,1.18-1.46,2.36-2.16,3.62Z"/><path class="cls-6" d="M196.93,310.82a51.3,51.3,0,0,1-11.35-17.13c.9,10.79,6.61,19.85,14.69,27.51a26.08,26.08,0,0,1-3.34-10.38Z"/><path class="cls-9" d="M249,345.58a14.47,14.47,0,0,0,1.8,4.46,14.67,14.67,0,0,0-1.8-4.46Z"/><path class="cls-10" d="M221.1,319.46c-.28-8.08,4-14.91,9-21.8,5.29-7.32,11.42-14.56,13.79-23.34a28.88,28.88,0,0,0-.14-15.18c3.48,30-26.82,40.26-22.64,60.32Z"/><path class="cls-10" d="M251.33,307.55c-5.29-6.06-13.09-8.22-21.45-9.82-8.85-1.67-18.25-2.86-26-7.66a28.09,28.09,0,0,1-10.25-11.15c17.91,24.31,47,11.07,57.68,28.63Z"/><path class="cls-11" d="M230,297.94a.24.24,0,0,1,.07-.14c0-.07-.07-.07-.14-.07l-1.12-.21c-5.22,7-9.33,13.65-7.66,21.94-.28-8,3.9-14.77,8.85-21.52Z"/><path class="cls-11" d="M230.23,297.8H230c0-.07.07-.07.07-.14a9.1,9.1,0,0,1,.69-.91c8.57,1.54,16.16,3.55,20.55,10.8-5.22-6-13-8.15-21.1-9.75Z"/><path class="cls-2" d="M146.29,249.87a28.78,28.78,0,0,0,.48,18.67,28.89,28.89,0,0,0,13.94-12.4,40.67,40.67,0,0,0-14.42-6.27Z"/><path class="cls-3" d="M160.71,256.14a28.89,28.89,0,0,1-13.94,12.4c2.93,8.15,8.85,15.32,13.52,22.57,6-3.48,11-9.13,14.14-18.95a41,41,0,0,0-13.72-16Z"/><path class="cls-4" d="M160.29,291.11c-4.67-7.25-10.59-14.42-13.52-22.57-8,3.41-17.2,4-25.7,5.5,2,8.85,7.87,16.37,13,23.83,8.91-1.4,18.39-2.23,26.26-6.76Z"/><path class="cls-5" d="M174.43,272.16c-3.14,9.82-8.15,15.47-14.14,18.95,4.25,6.62,7.45,13.3,6.48,21a54.29,54.29,0,0,0,11.91-16.72,43.16,43.16,0,0,0-3.21-20.76c-.34-.84-.69-1.67-1-2.51Z"/><path class="cls-6" d="M178.68,295.43a54.29,54.29,0,0,1-11.91,16.72A27,27,0,0,1,163,322.39c8.35-7.39,14.41-16.23,15.67-27Z"/><path class="cls-7" d="M166.77,312.15c-8.08,7.66-17.84,12.47-26.89,16.58A48.51,48.51,0,0,1,130.12,342c11.5-5.08,23.62-11.42,32.89-19.57a27,27,0,0,0,3.76-10.24Z"/><path class="cls-8" d="M139.88,328.73c9.05-4.11,18.81-8.92,26.89-16.58,1-7.74-2.23-14.42-6.48-21-7.87,4.53-17.35,5.36-26.26,6.76,6.4,9.47,11.49,18.87,5.85,30.86Z"/><path class="cls-8" d="M139.88,328.73c5.64-12,.55-21.39-5.85-30.86-11.22,1.81-21.6,4.52-26.55,16.78,4,11.92,8.23,22.23,6,30.45,4.59-7.18,15-11.22,26.4-16.37Z"/><path class="cls-9" d="M139.88,328.73c-11.43,5.15-21.81,9.19-26.4,16.37a13.33,13.33,0,0,1-1.88,4.45c5.57-2.22,12-4.73,18.52-7.59a48.51,48.51,0,0,0,9.76-13.23Z"/><path class="cls-9" d="M113.48,345.1c2.23-8.22-2-18.53-6-30.45a49.28,49.28,0,0,0-3,16.17c2.37,6.75,5,13.16,7.11,18.73a16.37,16.37,0,0,1,1.88-4.45Z"/><path class="cls-7" d="M104.49,330.82a49.28,49.28,0,0,1,3-16.17c-3.2-9.4-6.33-19.78-6.19-30.92a26.24,26.24,0,0,0-5,9.68c.35,12.33,4,25.49,8.15,37.41Z"/><path class="cls-8" d="M107.48,314.65c5-12.26,15.33-15,26.55-16.78-5.09-7.46-10.94-15-13-23.83-7.73,1.47-14.91,3.63-19.78,9.69-.14,11.14,3,21.52,6.19,30.92Z"/><path class="cls-5" d="M101.29,283.73c4.87-6.06,12-8.22,19.78-9.69-1.53-6.75-.91-14.28,4.18-23.19-.84.28-1.67.55-2.51.9-7.66,3-13.3,7-17.34,11.85a50.91,50.91,0,0,0-4.11,20.13Z"/><path class="cls-3" d="M125.25,250.85c-5.09,8.91-5.71,16.44-4.18,23.19,8.5-1.53,17.69-2.09,25.7-5.5a28.78,28.78,0,0,1-.48-18.67,42.72,42.72,0,0,0-11.22-.9,41.06,41.06,0,0,0-5.78.83c-1.33.28-2.72.63-4,1Z"/><path class="cls-6" d="M101.29,283.73a50.91,50.91,0,0,1,4.11-20.13c-7,8.21-9.41,18.66-9.06,29.81a26.24,26.24,0,0,1,5-9.68Z"/><path class="cls-9" d="M113.48,345.1a16.37,16.37,0,0,0-1.88,4.45,13.33,13.33,0,0,0,1.88-4.45Z"/><path class="cls-10" d="M112.29,306.92c5.5-5.92,13.38-7.73,21.74-9.05,8.91-1.4,18.39-2.23,26.26-6.76A28.85,28.85,0,0,0,171,280.31c-18.74,23.69-47.44,9.48-58.66,26.61Z"/><path class="cls-10" d="M142,319.88c.55-8.08-3.41-15.05-8.15-22.08-5.09-7.46-10.94-15-13-23.83a28.77,28.77,0,0,1,.63-15.11c-4.53,29.81,25.42,41.1,20.55,61Z"/><path class="cls-11" d="M133.75,297.94a.24.24,0,0,0,.14-.07v-.07a8.49,8.49,0,0,1-.7-1c-8.64,1.33-16.23,3.07-20.9,10.1,5.44-5.85,13.17-7.66,21.46-9Z"/><path class="cls-11" d="M134,298c-.07,0-.07-.06-.14-.13H134a5.91,5.91,0,0,1,1.11-.14c5,7.17,8.92,13.93,7,22.15.48-7.94-3.42-14.91-8.08-21.88Z"/><path class="cls-2" d="M108.6,204.8a28.94,28.94,0,0,0-12.89,13.51,29,29,0,0,0,18.67,1.19,41.14,41.14,0,0,0-5.78-14.7Z"/><path class="cls-3" d="M114.38,219.5a29,29,0,0,1-18.67-1.19c-3.69,7.88-4.6,17.14-6.41,25.57,6.76,1.74,14.28,1.32,23.41-3.41a40.84,40.84,0,0,0,1.67-21Z"/><path class="cls-4" d="M89.3,243.88c1.81-8.43,2.72-17.69,6.41-25.57-8.08-3.2-15-9.33-22.08-14.21-4.8,7.67-5.92,17.14-7.66,26,7.31,5.29,14.63,11.42,23.33,13.79Z"/><path class="cls-5" d="M112.71,240.47c-9.13,4.73-16.65,5.15-23.41,3.41-1.67,7.66-4.11,14.7-10.31,19.43a53.37,53.37,0,0,0,20.27-3.41c4.95-3.9,9.13-9.4,12.41-16.92.34-.84.69-1.68,1-2.51Z"/><path class="cls-6" d="M99.26,259.9A53.37,53.37,0,0,1,79,263.31a27.07,27.07,0,0,1-9.82,4.6c11.08.7,21.6-1.25,30.09-8Z"/><path class="cls-7" d="M79,263.31c-11.14-.27-21.38-3.76-30.71-7.24-4.19,1.53-9.55,2.37-16.24,2.44,11.78,4.53,24.8,8.64,37.13,9.4a27.07,27.07,0,0,0,9.82-4.6Z"/><path class="cls-8" d="M48.28,256.07c9.33,3.48,19.57,7,30.71,7.24,6.2-4.73,8.64-11.77,10.31-19.43-8.7-2.37-16-8.5-23.33-13.79-2.16,11.21-5.23,21.45-17.69,26Z"/><path class="cls-8" d="M48.28,256.07c12.46-4.53,15.53-14.77,17.69-26-9.2-6.69-18.46-12.12-30.65-6.9C29.82,234.48,25.43,244.72,18,249c8.36-1.89,18.53,2.64,30.24,7.1Z"/><path class="cls-9" d="M48.28,256.07c-11.71-4.46-21.88-9-30.24-7.1a14.74,14.74,0,0,1-4.46,1.81c5.51,2.37,11.78,5.08,18.46,7.73,6.69-.07,12.05-.91,16.24-2.44Z"/><path class="cls-9" d="M18,249c7.39-4.25,11.78-14.49,17.28-25.78-4.11,1.74-8.57,4.74-13.51,9.34C18.67,239,16,245.27,13.58,250.78A15.17,15.17,0,0,1,18,249Z"/><path class="cls-7" d="M21.81,232.53c4.94-4.6,9.4-7.6,13.51-9.34,4.39-8.92,9.54-18.53,17.48-26.26a26.19,26.19,0,0,0-10.31,3.34c-8.5,9-15.25,20.9-20.68,32.26Z"/><path class="cls-8" d="M35.32,223.19c12.19-5.22,21.45.21,30.65,6.9,1.74-8.85,2.86-18.32,7.66-26-6.48-4.52-13.1-7.94-20.83-7.17-7.94,7.73-13.09,17.34-17.48,26.26Z"/><path class="cls-5" d="M52.8,196.93c7.73-.77,14.35,2.65,20.83,7.17,3.69-5.92,9.54-10.72,19.37-13.51-.77-.35-1.61-.77-2.44-1.11-7.53-3.28-14.35-4.39-20.62-3.9A51.35,51.35,0,0,0,52.8,196.93Z"/><path class="cls-3" d="M93,190.59c-9.83,2.79-15.68,7.59-19.37,13.51,7.11,4.88,14,11,22.08,14.21A28.94,28.94,0,0,1,108.6,204.8a40.48,40.48,0,0,0-7.31-8.5,33.41,33.41,0,0,0-4.67-3.55c-1.19-.77-2.37-1.46-3.62-2.16Z"/><path class="cls-6" d="M52.8,196.93a51.35,51.35,0,0,1,17.14-11.35c-10.8.9-19.86,6.61-27.45,14.69a26.19,26.19,0,0,1,10.31-3.34Z"/><path class="cls-9" d="M18,249a15.17,15.17,0,0,0-4.46,1.81A14.74,14.74,0,0,0,18,249Z"/><path class="cls-10" d="M44.16,221.1c8.08-.28,15,4,21.81,9,7.31,5.29,14.63,11.42,23.33,13.79a28.92,28.92,0,0,0,15.19-.14c-29.95,3.48-40.26-26.82-60.33-22.64Z"/><path class="cls-10" d="M56.08,251.33c6.13-5.29,8.22-13.09,9.82-21.45,1.74-8.85,2.86-18.25,7.66-26a28.58,28.58,0,0,1,11.15-10.25c-24.32,17.91-11.08,47-28.63,57.68Z"/><path class="cls-11" d="M65.76,230a.24.24,0,0,0,.14.07v-.14c.07-.35.14-.7.21-1.12-7-5.22-13.66-9.33-22-7.66,8-.28,14.77,3.9,21.6,8.85Z"/><path class="cls-11" d="M65.83,230.23c0-.07.07-.14.07-.21l.07.07a7,7,0,0,1,.9.69c-1.53,8.57-3.55,16.16-10.79,20.55,6.06-5.22,8.15-13,9.75-21.1Z"/><path class="cls-2" d="M113.76,146.29a28.48,28.48,0,0,0-18.6.49,28.38,28.38,0,0,0,12.32,13.93,40.51,40.51,0,0,0,6.28-14.42Z"/><path class="cls-3" d="M107.48,160.71a28.38,28.38,0,0,1-12.32-13.93c-8.22,2.92-15.4,8.84-22.64,13.51,3.48,6,9.19,11,18.94,14.14a41,41,0,0,0,16-13.72Z"/><path class="cls-4" d="M72.52,160.29c7.24-4.67,14.42-10.59,22.64-13.51-3.49-8-4-17.21-5.58-25.71-8.84,2-16.37,7.87-23.82,13,1.39,8.91,2.23,18.39,6.76,26.26Z"/><path class="cls-5" d="M91.46,174.43c-9.75-3.14-15.46-8.15-18.94-14.14-6.62,4.25-13.31,7.45-21,6.48a53.68,53.68,0,0,0,16.79,11.91c6.2.69,13.09-.21,20.68-3.21.91-.34,1.68-.69,2.51-1Z"/><path class="cls-6" d="M68.27,178.68a53.68,53.68,0,0,1-16.79-11.91A26.28,26.28,0,0,1,41.31,163c7.31,8.35,16.16,14.41,27,15.67Z"/><path class="cls-7" d="M51.48,166.77C43.82,158.69,39,148.93,34.9,139.88a48.65,48.65,0,0,1-13.23-9.75c5.08,11.49,11.42,23.61,19.64,32.88a26.28,26.28,0,0,0,10.17,3.76Z"/><path class="cls-8" d="M34.9,139.88c4.11,9.05,8.92,18.81,16.58,26.89,7.73,1,14.42-2.23,21-6.48C68,152.42,67.15,142.94,65.76,134c-9.4,6.4-18.81,11.49-30.86,5.85Z"/><path class="cls-8" d="M34.9,139.88c12.05,5.64,21.46.55,30.86-5.85C64,122.81,61.3,112.43,49,107.48c-11.84,4-22.22,8.23-30.44,6,7.24,4.59,11.22,15,16.37,26.4Z"/><path class="cls-9" d="M34.9,139.88c-5.15-11.43-9.13-21.81-16.37-26.4a13.66,13.66,0,0,1-4.39-1.88c2.16,5.57,4.67,12,7.53,18.53a48.65,48.65,0,0,0,13.23,9.75Z"/><path class="cls-9" d="M18.53,113.48c8.22,2.23,18.6-2,30.44-6a48.85,48.85,0,0,0-16.16-3c-6.76,2.37-13.16,5-18.67,7.11a17,17,0,0,1,4.39,1.88Z"/><path class="cls-7" d="M32.81,104.49a48.85,48.85,0,0,1,16.16,3c9.48-3.2,19.86-6.33,30.93-6.19a26.47,26.47,0,0,0-9.68-5c-12.33.35-25.5,4-37.41,8.15Z"/><path class="cls-8" d="M49,107.48c12.33,5,15,15.33,16.79,26.55,7.45-5.09,15-10.94,23.82-13-1.39-7.73-3.62-14.91-9.68-19.78-11.07-.14-21.45,3-30.93,6.19Z"/><path class="cls-5" d="M79.9,101.29c6.06,4.87,8.29,12,9.68,19.78,6.76-1.53,14.28-.91,23.2,4.18-.28-.84-.56-1.67-.91-2.51-3-7.66-7-13.3-11.84-17.34a50.91,50.91,0,0,0-20.13-4.11Z"/><path class="cls-3" d="M112.78,125.25c-8.92-5.09-16.44-5.71-23.2-4.18,1.53,8.5,2.09,17.69,5.58,25.71a28.48,28.48,0,0,1,18.6-.49,40.32,40.32,0,0,0,.9-11.22,57,57,0,0,0-.77-5.78,27.62,27.62,0,0,0-1.11-4Z"/><path class="cls-6" d="M79.9,101.29A50.91,50.91,0,0,1,100,105.4c-8.22-7-18.67-9.41-29.81-9.06a26.47,26.47,0,0,1,9.68,5Z"/><path class="cls-9" d="M18.53,113.48a17,17,0,0,0-4.39-1.88,13.66,13.66,0,0,0,4.39,1.88Z"/><path class="cls-10" d="M56.7,112.29c5.92,5.5,7.74,13.38,9.06,21.74,1.39,8.91,2.23,18.39,6.76,26.26A29,29,0,0,0,83.38,171c-23.68-18.74-9.54-47.44-26.68-58.66Z"/><path class="cls-10" d="M43.75,142c8.08.55,15-3.41,22.08-8.15,7.52-5.09,15-10.94,23.82-13a29.31,29.31,0,0,1,15.19.63C75,117,63.67,146.91,43.75,142Z"/><path class="cls-11" d="M65.69,133.75a.22.22,0,0,1,.07.14h.07a9.37,9.37,0,0,1,1-.7c-1.25-8.64-3-16.23-10.1-20.9,5.85,5.43,7.74,13.17,9,21.46Z"/><path class="cls-11" d="M65.62,134c0-.08.07-.08.14-.14V134c.07.35.14.76.21,1.11-7.25,5-14,8.92-22.22,7,8,.48,14.9-3.42,21.87-8.08Z"/><path class="cls-2" d="M158.82,108.6a28.94,28.94,0,0,0-13.51-12.89,28.56,28.56,0,0,0-1.11,18.67,41.26,41.26,0,0,0,14.62-5.78Z"/><path class="cls-3" d="M144.2,114.38a28.56,28.56,0,0,1,1.11-18.67c-7.87-3.69-17.13-4.59-25.5-6.41-1.8,6.76-1.39,14.29,3.35,23.41a41.1,41.1,0,0,0,21,1.67Z"/><path class="cls-4" d="M119.81,89.3c8.37,1.82,17.63,2.72,25.5,6.41,3.2-8.08,9.34-15,14.21-22.08-7.66-4.81-17.13-5.92-26-7.66-5.3,7.31-11.43,14.63-13.73,23.33Z"/><path class="cls-5" d="M123.16,112.71c-4.74-9.12-5.15-16.65-3.35-23.41-7.73-1.67-14.76-4.1-19.5-10.31a53.65,53.65,0,0,0,3.41,20.28c3.9,4.94,9.41,9.12,16.93,12.4l2.51,1Z"/><path class="cls-6" d="M103.72,99.27A53.65,53.65,0,0,1,100.31,79a27.4,27.4,0,0,1-4.6-9.82c-.69,11.08,1.33,21.6,8,30.1Z"/><path class="cls-7" d="M100.31,79c.28-11.14,3.76-21.38,7.31-30.71A47.59,47.59,0,0,1,105.19,32c-4.6,11.78-8.71,24.8-9.48,37.13a27.4,27.4,0,0,0,4.6,9.82Z"/><path class="cls-8" d="M107.62,48.28c-3.55,9.33-7,19.57-7.31,30.71,4.74,6.21,11.77,8.64,19.5,10.31,2.3-8.7,8.43-16,13.73-23.33-11.15-2.16-21.39-5.22-25.92-17.69Z"/><path class="cls-8" d="M107.62,48.28c4.53,12.47,14.77,15.53,25.92,17.69,6.69-9.2,12.12-18.46,6.89-30.65C129.22,29.82,119,25.43,114.66,18c1.88,8.36-2.65,18.53-7,30.24Z"/><path class="cls-9" d="M107.62,48.28c4.39-11.71,8.92-21.88,7-30.24a14.34,14.34,0,0,1-1.74-4.46c-2.44,5.51-5.16,11.78-7.73,18.46a47.59,47.59,0,0,0,2.43,16.24Z"/><path class="cls-9" d="M114.66,18c4.32,7.39,14.56,11.78,25.77,17.28-1.74-4.11-4.73-8.57-9.33-13.51-6.41-3.14-12.75-5.86-18.18-8.23A15.26,15.26,0,0,1,114.66,18Z"/><path class="cls-7" d="M131.1,21.81c4.6,4.94,7.59,9.4,9.33,13.51,8.92,4.39,18.53,9.54,26.34,17.48a27.69,27.69,0,0,0-3.42-10.31c-9-8.5-20.83-15.25-32.25-20.68Z"/><path class="cls-8" d="M140.43,35.32c5.23,12.19-.2,21.45-6.89,30.65,8.85,1.74,18.32,2.85,26,7.66,4.53-6.48,8-13.1,7.25-20.83-7.81-7.94-17.42-13.09-26.34-17.48Z"/><path class="cls-5" d="M166.77,52.8c.76,7.73-2.72,14.35-7.25,20.83,5.92,3.69,10.8,9.54,13.52,19.37.41-.77.76-1.61,1.11-2.44,3.27-7.52,4.39-14.35,3.9-20.62A52.61,52.61,0,0,0,166.77,52.8Z"/><path class="cls-3" d="M173,93c-2.72-9.83-7.6-15.68-13.52-19.37-4.87,7.11-11,14-14.21,22.08a28.94,28.94,0,0,1,13.51,12.89,42.42,42.42,0,0,0,8.57-7.31A49.46,49.46,0,0,0,171,96.62,39.49,39.49,0,0,0,173,93Z"/><path class="cls-6" d="M166.77,52.8a52.61,52.61,0,0,1,11.28,17.14c-.84-10.8-6.62-19.85-14.7-27.45a27.69,27.69,0,0,1,3.42,10.31Z"/><path class="cls-9" d="M114.66,18a15.26,15.26,0,0,0-1.74-4.46A14.34,14.34,0,0,0,114.66,18Z"/><path class="cls-10" d="M142.52,44.16c.28,8.09-4,15-9,21.81-5.3,7.31-11.43,14.63-13.73,23.33a28.17,28.17,0,0,0,.07,15.19c-3.48-29.95,26.82-40.26,22.64-60.33Z"/><path class="cls-10" d="M112.29,56.08c5.3,6.13,13.1,8.22,21.46,9.82,8.84,1.74,18.32,2.86,26,7.66A28,28,0,0,1,170,84.71c-17.83-24.31-47-11.08-57.68-28.63Z"/><path class="cls-11" d="M133.75,65.76c-.07,0-.07.07-.14.14h.14l1.11.21c5.23-7,9.4-13.66,7.66-22,.28,8-3.89,14.77-8.77,21.6Z"/><path class="cls-11" d="M133.47,65.83a.24.24,0,0,0,.14.07.07.07,0,0,1-.07.07c-.21.28-.42.63-.63.9-8.64-1.53-16.23-3.55-20.62-10.79,5.3,6.06,13,8.15,21.18,9.75Z"/><path class="cls-2" d="M187.32,105.26a28.74,28.74,0,0,0-7.88-16.93,28.79,28.79,0,0,0-7.87,16.93,43,43,0,0,0,15.75,0Z"/><path class="cls-3" d="M171.57,105.26a28.79,28.79,0,0,1,7.87-16.93c-6-6.34-14.21-10.52-21.38-15.33-4.11,5.58-6.48,12.82-5.43,23a41,41,0,0,0,18.94,9.27Z"/><path class="cls-8" d="M158.06,73c7.17,4.81,15.39,9,21.38,15.33C185.36,82,193.65,77.81,200.83,73,195.4,65.69,187,61.16,179.44,56.36c-7.59,4.8-16,9.33-21.38,16.64Z"/><path class="cls-4" d="M152.63,96c-1-10.17,1.32-17.41,5.43-23-6.55-4.38-12.19-9.26-14.35-16.71a53.6,53.6,0,0,0-4.25,20.06,43.12,43.12,0,0,0,11.21,17.76c.63.7,1.33,1.26,2,1.88Z"/><path class="cls-12" d="M139.46,76.35a53.6,53.6,0,0,1,4.25-20.06,28.61,28.61,0,0,1-.63-10.87c-4.74,10.1-6.75,20.62-3.62,30.93Z"/><path class="cls-7" d="M143.71,56.29c4.39-10.24,11.35-18.54,18-25.92a49.17,49.17,0,0,1,3.69-16c-8.49,9.26-17.13,19.92-22.36,31.07a28.61,28.61,0,0,0,.63,10.87Z"/><path class="cls-8" d="M161.75,30.37c-6.69,7.38-13.65,15.68-18,25.92,2.16,7.45,7.8,12.33,14.35,16.71,5.36-7.31,13.79-11.84,21.38-16.64-9.61-6.14-18-12.75-17.69-26Z"/><path class="cls-8" d="M161.75,30.37c-.35,13.24,8.08,19.85,17.69,26,9.62-6.14,18-12.75,17.63-26-8.43-9.26-16.3-17.13-17.63-25.56-1.32,8.43-9.19,16.3-17.69,25.56Z"/><path class="cls-9" d="M161.75,30.37c8.5-9.26,16.37-17.13,17.69-25.56a14.38,14.38,0,0,1,0-4.81c-4.25,4.25-9.12,9.06-14,14.35a49.17,49.17,0,0,0-3.69,16Z"/><path class="cls-9" d="M179.44,4.81c1.33,8.43,9.2,16.3,17.63,25.56-.07-4.46-1.26-9.75-3.69-16C188.5,9.06,183.69,4.25,179.44,0a18.43,18.43,0,0,1,0,4.81Z"/><path class="cls-7" d="M193.38,14.35c2.43,6.27,3.62,11.56,3.69,16,6.69,7.38,13.72,15.68,18,25.92a27.36,27.36,0,0,0,.7-10.87c-5.3-11.15-13.87-21.81-22.43-31.07Z"/><path class="cls-8" d="M197.07,30.37c.35,13.24-8,19.85-17.63,26,7.6,4.8,16,9.33,21.39,16.64,6.55-4.38,12.19-9.26,14.28-16.71-4.32-10.24-11.35-18.54-18-25.92Z"/><path class="cls-4" d="M215.11,56.29C213,63.74,207.38,68.62,200.83,73c4.11,5.58,6.48,12.82,5.37,23,.69-.62,1.32-1.18,2-1.88,5.78-5.78,9.34-11.7,11.15-17.76a51,51,0,0,0-4.25-20.06Z"/><path class="cls-3" d="M206.2,96c1.11-10.17-1.26-17.41-5.37-23-7.18,4.81-15.47,9-21.39,15.33a28.74,28.74,0,0,1,7.88,16.93,38.85,38.85,0,0,0,10.58-3.7,35,35,0,0,0,5-3A30.52,30.52,0,0,0,206.2,96Z"/><path class="cls-12" d="M215.11,56.29a51,51,0,0,1,4.25,20.06c3.2-10.31,1.18-20.83-3.55-30.93a27.36,27.36,0,0,1-.7,10.87Z"/><path class="cls-9" d="M179.44,4.81a18.43,18.43,0,0,0,0-4.81,14.38,14.38,0,0,0,0,4.81Z"/><path class="cls-10" d="M195.75,39.36c-2.72,7.59-9.2,12.4-16.31,17-7.59,4.8-16,9.33-21.38,16.64a28.5,28.5,0,0,0-5.43,14.14c7.73-29.18,39.63-27.58,43.12-47.78Z"/><path class="cls-10" d="M163.28,39.36c2.72,7.59,9.2,12.4,16.37,17,7.6,4.8,15.95,9.33,21.32,16.64a28.1,28.1,0,0,1,5.5,14.14c-7.73-29.18-39.7-27.58-43.19-47.78Z"/><path class="cls-11" d="M179.65,56.15c0,.07-.07.07-.14.14s.07,0,.14.07c.28.2.63.41.91.62,7.45-4.67,13.79-9.26,15.19-17.62-2.65,7.52-9,12.33-16.1,16.79Z"/><path class="cls-11" d="M179.37,56.15l.14.14a.07.07,0,0,0-.07.07c-.34.2-.62.41-1,.62-7.45-4.67-13.73-9.26-15.19-17.62,2.72,7.52,9.06,12.33,16.09,16.79Z"/><path class="cls-2" d="M239.84,131.52A28.57,28.57,0,0,0,246.25,114a28.93,28.93,0,0,0-17.56,6.41,41.24,41.24,0,0,0,11.15,11.08Z"/><path class="cls-3" d="M228.69,120.44A28.93,28.93,0,0,1,246.25,114c.28-8.7-2.58-17.48-4.32-26-6.83,1-13.58,4.46-20.06,12.47a40.36,40.36,0,0,0,6.82,19.92Z"/><path class="cls-8" d="M241.93,88.05c1.74,8.5,4.6,17.28,4.32,26,8.71-.27,17.48,2.58,25.91,4.25,1.39-8.91-1.32-18-3.27-26.89-8.85-2-18-4.66-27-3.34Z"/><path class="cls-4" d="M221.87,100.52c6.48-8,13.23-11.43,20.06-12.47-1.53-7.73-2-15.12,1.74-21.94a53,53,0,0,0-17.21,11.21c-3,5.58-4.66,12.26-4.66,20.48,0,.91,0,1.81.07,2.72Z"/><path class="cls-12" d="M226.46,77.32a53,53,0,0,1,17.21-11.21A27.25,27.25,0,0,1,250.85,58c-10.45,3.83-19.3,9.82-24.39,19.36Z"/><path class="cls-7" d="M243.67,66.11C254,61.93,264.78,61,274.74,60.53a49.45,49.45,0,0,1,13.93-8.7c-12.61.48-26.19,2-37.82,6.13a27.25,27.25,0,0,0-7.18,8.15Z"/><path class="cls-8" d="M274.74,60.53c-10,.49-20.76,1.4-31.07,5.58-3.76,6.82-3.27,14.21-1.74,21.94,9-1.32,18.11,1.39,27,3.34-2.51-11.14-3.76-21.73,5.85-30.86Z"/><path class="cls-8" d="M274.74,60.53c-9.61,9.13-8.36,19.72-5.85,30.86,11.07,2.51,21.73,3.77,30.79-5.85.62-12.54.56-23.68,5.64-30.58-6.9,5.09-18,5-30.58,5.57Z"/><path class="cls-9" d="M274.74,60.53c12.54-.55,23.68-.48,30.58-5.57a15.62,15.62,0,0,1,3.34-3.41c-6,0-12.81,0-20,.28a49.45,49.45,0,0,0-13.93,8.7Z"/><path class="cls-9" d="M305.32,55c-5.08,6.9-5,18-5.64,30.58a48.16,48.16,0,0,0,8.78-13.93c.27-7.17.2-14.07.2-20.06A14.08,14.08,0,0,1,305.32,55Z"/><path class="cls-7" d="M308.46,71.61a48.16,48.16,0,0,1-8.78,13.93c-.49,9.9-1.33,20.76-5.51,31.07a27.34,27.34,0,0,0,8.08-7.24c4.25-11.57,5.65-25.22,6.21-37.76Z"/><path class="cls-8" d="M299.68,85.54c-9.06,9.62-19.72,8.36-30.79,5.85,1.95,8.85,4.66,18,3.27,26.89,7.73,1.54,15.19,2.09,22-1.67,4.18-10.31,5-21.17,5.51-31.07Z"/><path class="cls-4" d="M294.17,116.61c-6.82,3.76-14.28,3.21-22,1.67-1,6.9-4.39,13.66-12.4,20.13.91,0,1.81.07,2.72.07,8.15,0,14.91-1.67,20.48-4.66a53,53,0,0,0,11.21-17.21Z"/><path class="cls-3" d="M259.76,138.41c8-6.47,11.43-13.23,12.4-20.13-8.43-1.67-17.2-4.52-25.91-4.25a28.57,28.57,0,0,1-6.41,17.49,40.18,40.18,0,0,0,10.1,4.95,31.74,31.74,0,0,0,5.71,1.39,39.09,39.09,0,0,0,4.11.55Z"/><path class="cls-12" d="M294.17,116.61A53,53,0,0,1,283,133.82c9.54-5.09,15.53-13.94,19.29-24.45a27.34,27.34,0,0,1-8.08,7.24Z"/><path class="cls-9" d="M305.32,55a14.08,14.08,0,0,0,3.34-3.41A15.62,15.62,0,0,0,305.32,55Z"/><path class="cls-10" d="M292.43,90.91c-7.31,3.48-15.32,2.37-23.54.48-8.85-2-18-4.66-27-3.34a28.62,28.62,0,0,0-13.86,6.2c26.12-15.18,47.57,8.5,64.36-3.34Z"/><path class="cls-10" d="M269.45,68c-3.49,7.31-2.3,15.25-.42,23.54,2,8.85,4.66,18,3.27,26.89a28.11,28.11,0,0,1-6.13,13.86c15.19-26-8.57-47.57,3.28-64.29Z"/><path class="cls-11" d="M269.17,91.46a.26.26,0,0,1-.21-.07c0,.07,0,.14.07.14.07.35.14.77.2,1.12,8.57,2,16.24,3.2,23.2-1.67-7.24,3.41-15.11,2.3-23.26.48Z"/><path class="cls-11" d="M269,91.25v.14h-.07l-1.12-.21c-2-8.56-3.2-16.29,1.68-23.19-3.42,7.17-2.3,15.11-.49,23.26Z"/><path class="cls-2" d="M258.37,187.32a28.83,28.83,0,0,0,16.93-7.88,28.88,28.88,0,0,0-16.93-7.87,42.55,42.55,0,0,0,0,15.75Z"/><path class="cls-3" d="M258.37,171.57a28.88,28.88,0,0,1,16.93,7.87c6.34-6,10.52-14.2,15.32-21.38-5.57-4.11-12.75-6.48-23-5.43a41.68,41.68,0,0,0-9.26,18.94Z"/><path class="cls-8" d="M290.62,158.06c-4.8,7.18-9,15.39-15.32,21.38,6.34,5.92,10.52,14.21,15.32,21.39,7.32-5.43,11.84-13.79,16.65-21.39-4.81-7.59-9.33-16-16.65-21.38Z"/><path class="cls-4" d="M267.63,152.63c10.24-1,17.42,1.32,23,5.43,4.39-6.55,9.27-12.19,16.79-14.35a54,54,0,0,0-20.13-4.25,43.12,43.12,0,0,0-17.76,11.21c-.63.63-1.26,1.33-1.89,2Z"/><path class="cls-12" d="M287.28,139.46a54,54,0,0,1,20.13,4.25,28.12,28.12,0,0,1,10.8-.63c-10-4.74-20.55-6.75-30.93-3.62Z"/><path class="cls-7" d="M307.41,143.71c10.24,4.39,18.46,11.35,25.84,18a48.73,48.73,0,0,1,16,3.69c-9.26-8.49-19.85-17.13-31.06-22.36a28.12,28.12,0,0,0-10.8.63Z"/><path class="cls-8" d="M333.25,161.75c-7.38-6.69-15.6-13.65-25.84-18-7.52,2.16-12.4,7.8-16.79,14.35,7.32,5.36,11.84,13.79,16.65,21.38,6.13-9.61,12.75-18,26-17.69Z"/><path class="cls-8" d="M333.25,161.75c-13.23-.35-19.85,8.08-26,17.69,6.13,9.62,12.75,18,26,17.63,9.27-8.43,17.14-16.3,25.57-17.63-8.43-1.32-16.3-9.19-25.57-17.69Z"/><path class="cls-9" d="M333.25,161.75c9.27,8.5,17.14,16.37,25.57,17.69a14.38,14.38,0,0,1,4.81,0c-4.25-4.25-9.06-9.12-14.36-14a48.73,48.73,0,0,0-16-3.69Z"/><path class="cls-9" d="M358.82,179.44c-8.43,1.33-16.3,9.2-25.57,17.63,4.53-.07,9.76-1.26,16-3.69,5.3-4.88,10.11-9.69,14.36-13.94a18.44,18.44,0,0,1-4.81,0Z"/><path class="cls-7" d="M349.27,193.38c-6.26,2.43-11.49,3.62-16,3.69-7.38,6.69-15.6,13.72-25.84,18a26.89,26.89,0,0,0,10.8.7c11.21-5.3,21.8-13.86,31.06-22.43Z"/><path class="cls-8" d="M333.25,197.07c-13.23.35-19.85-8-26-17.63-4.81,7.6-9.33,16-16.65,21.39,4.39,6.55,9.27,12.19,16.79,14.28,10.24-4.32,18.46-11.35,25.84-18Z"/><path class="cls-4" d="M307.41,215.11c-7.52-2.09-12.4-7.73-16.79-14.28-5.57,4.11-12.75,6.48-23,5.36.63.7,1.26,1.33,1.89,2,5.78,5.78,11.7,9.34,17.76,11.15a51.36,51.36,0,0,0,20.13-4.25Z"/><path class="cls-3" d="M267.63,206.19c10.24,1.12,17.42-1.25,23-5.36-4.8-7.18-9-15.47-15.32-21.39a28.83,28.83,0,0,1-16.93,7.88,41.7,41.7,0,0,0,3.69,10.58,36,36,0,0,0,3,5,40.76,40.76,0,0,0,2.57,3.27Z"/><path class="cls-12" d="M307.41,215.11a51.36,51.36,0,0,1-20.13,4.25c10.38,3.2,20.89,1.18,30.93-3.55a26.89,26.89,0,0,1-10.8-.7Z"/><path class="cls-9" d="M358.82,179.44a18.44,18.44,0,0,0,4.81,0,14.38,14.38,0,0,0-4.81,0Z"/><path class="cls-10" d="M324.27,195.74c-7.6-2.71-12.4-9.19-17-16.3-4.81-7.59-9.33-16-16.65-21.38a28.5,28.5,0,0,0-14.14-5.43c29.19,7.73,27.59,39.63,47.79,43.11Z"/><path class="cls-10" d="M324.27,163.28c-7.6,2.72-12.4,9.2-17,16.37-4.81,7.6-9.33,15.95-16.65,21.32a28,28,0,0,1-14.14,5.5c29.19-7.73,27.59-39.7,47.79-43.19Z"/><path class="cls-11" d="M307.48,179.65c-.07,0-.07-.07-.14-.14s0,.07-.07.14a6.39,6.39,0,0,1-.56.91c4.6,7.45,9.2,13.79,17.56,15.18-7.53-2.64-12.33-9-16.79-16.09Z"/><path class="cls-11" d="M307.48,179.37l-.14.14a.07.07,0,0,0-.07-.07,7.52,7.52,0,0,0-.56-1c4.6-7.45,9.2-13.72,17.56-15.19-7.53,2.72-12.33,9.06-16.79,16.09Z"/><path class="cls-2" d="M232.11,239.84a28.69,28.69,0,0,0,17.48,6.41,29.27,29.27,0,0,0-6.34-17.56,41.33,41.33,0,0,0-11.14,11.15Z"/><path class="cls-3" d="M243.25,228.69a29.27,29.27,0,0,1,6.34,17.56c8.71.28,17.56-2.58,26-4.32-1-6.83-4.45-13.58-12.39-20.06a40.16,40.16,0,0,0-19.93,6.82Z"/><path class="cls-8" d="M275.57,241.93c-8.42,1.74-17.27,4.6-26,4.32.28,8.71-2.58,17.48-4.25,25.91,9,1.39,18.12-1.32,26.89-3.27,1.95-8.85,4.67-18,3.34-27Z"/><path class="cls-4" d="M263.18,221.87c7.94,6.48,11.35,13.23,12.39,20.06,7.74-1.53,15.19-2,21.95,1.74a53,53,0,0,0-11.22-17.21c-5.5-3-12.26-4.66-20.48-4.66-.9,0-1.81,0-2.64.07Z"/><path class="cls-12" d="M286.3,226.46a53,53,0,0,1,11.22,17.21,27.49,27.49,0,0,1,8.15,7.18c-3.76-10.45-9.82-19.3-19.37-24.39Z"/><path class="cls-7" d="M297.52,243.67c4.18,10.31,5.08,21.11,5.57,31.07a49.45,49.45,0,0,1,8.71,13.93c-.49-12.61-1.95-26.19-6.13-37.82a27.49,27.49,0,0,0-8.15-7.18Z"/><path class="cls-8" d="M303.09,274.74c-.49-10-1.39-20.76-5.57-31.07-6.76-3.76-14.21-3.27-21.95-1.74,1.33,9-1.39,18.11-3.34,27,11.15-2.51,21.73-3.76,30.86,5.85Z"/><path class="cls-8" d="M303.09,274.74c-9.13-9.61-19.71-8.36-30.86-5.85-2.44,11.07-3.76,21.73,5.85,30.79,12.54.62,23.69.56,30.58,5.64-5-6.9-5-18-5.57-30.58Z"/><path class="cls-9" d="M303.09,274.74c.56,12.54.56,23.68,5.57,30.58a14.26,14.26,0,0,1,3.42,3.34c0-6,0-12.81-.28-20a49.45,49.45,0,0,0-8.71-13.93Z"/><path class="cls-9" d="M308.66,305.32c-6.89-5.08-18-5-30.58-5.64a47.53,47.53,0,0,0,14,8.77c7.17.28,14,.21,20,.21a17.21,17.21,0,0,1-3.42-3.34Z"/><path class="cls-7" d="M292.09,308.45a47.53,47.53,0,0,1-14-8.77c-9.89-.49-20.76-1.33-31.07-5.51a27.39,27.39,0,0,0,7.25,8.08c11.63,4.25,25.22,5.65,37.83,6.2Z"/><path class="cls-8" d="M278.08,299.68c-9.61-9.06-8.29-19.72-5.85-30.79-8.77,1.95-17.9,4.66-26.89,3.27-1.53,7.74-2.09,15.19,1.67,22,10.31,4.18,21.18,5,31.07,5.51Z"/><path class="cls-4" d="M247,294.17c-3.76-6.82-3.2-14.27-1.67-22-6.89-1-13.65-4.39-20.06-12.4-.07.91-.14,1.81-.14,2.72A43.34,43.34,0,0,0,229.81,283,52.83,52.83,0,0,0,247,294.17Z"/><path class="cls-3" d="M225.28,259.76c6.41,8,13.17,11.43,20.06,12.4,1.67-8.43,4.53-17.2,4.25-25.91a28.69,28.69,0,0,1-17.48-6.41,40.18,40.18,0,0,0-5,10.1,37.78,37.78,0,0,0-1.39,5.71,26.52,26.52,0,0,0-.49,4.11Z"/><path class="cls-12" d="M247,294.17A52.83,52.83,0,0,1,229.81,283c5.08,9.54,14,15.53,24.45,19.29a27.39,27.39,0,0,1-7.25-8.08Z"/><path class="cls-9" d="M308.66,305.32a17.21,17.21,0,0,0,3.42,3.34,14.26,14.26,0,0,0-3.42-3.34Z"/><path class="cls-10" d="M272.72,292.43c-3.49-7.31-2.3-15.32-.49-23.54,1.95-8.85,4.67-18,3.34-27a28.36,28.36,0,0,0-6.12-13.86c15.11,26.12-8.57,47.57,3.27,64.36Z"/><path class="cls-10" d="M295.64,269.45c-7.25-3.49-15.26-2.3-23.55-.42-8.77,2-17.9,4.66-26.89,3.27a28.46,28.46,0,0,1-13.86-6.13c26.12,15.19,47.58-8.57,64.3,3.28Z"/><path class="cls-11" d="M272.16,269.17c0-.07.07-.14.07-.21s-.07,0-.14.07l-1.11.2c-2,8.57-3.14,16.24,1.74,23.2-3.49-7.24-2.37-15.11-.56-23.26Z"/><path class="cls-11" d="M272.37,269h-.14v-.07a5.24,5.24,0,0,1,.28-1.12c8.5-2,16.23-3.2,23.13,1.68-7.18-3.42-15.05-2.3-23.27-.49Z"/><path class="cls-2" d="M176.31,258.37a28.76,28.76,0,0,0,7.87,16.93,28.35,28.35,0,0,0,7.87-16.93,42.5,42.5,0,0,0-15.74,0Z"/><path class="cls-3" d="M192.05,258.37a28.35,28.35,0,0,1-7.87,16.93c6,6.34,14.21,10.52,21.39,15.32,4.11-5.57,6.48-12.75,5.43-23a41,41,0,0,0-18.95-9.26Z"/><path class="cls-8" d="M205.57,290.62c-7.18-4.8-15.4-9-21.39-15.32-5.92,6.34-14.21,10.52-21.31,15.32,5.36,7.32,13.72,11.84,21.31,16.65,7.66-4.81,16-9.33,21.39-16.65Z"/><path class="cls-4" d="M211,267.63c1.05,10.24-1.32,17.42-5.43,23,6.55,4.39,12.19,9.27,14.35,16.79a54,54,0,0,0,4.25-20.13c-1.81-6.06-5.44-12-11.22-17.76-.63-.63-1.25-1.26-1.95-1.89Z"/><path class="cls-12" d="M224.17,287.28a54,54,0,0,1-4.25,20.13,25.79,25.79,0,0,1,.62,10.8c4.74-10,6.76-20.55,3.63-30.93Z"/><path class="cls-7" d="M219.92,307.41c-4.32,10.24-11.36,18.46-18,25.84a48.53,48.53,0,0,1-3.7,16c8.57-9.26,17.14-19.85,22.36-31.06a25.79,25.79,0,0,0-.62-10.8Z"/><path class="cls-8" d="M201.88,333.25c6.68-7.38,13.72-15.6,18-25.84-2.16-7.52-7.8-12.4-14.35-16.79-5.37,7.32-13.73,11.84-21.39,16.65,9.61,6.13,18,12.75,17.7,26Z"/><path class="cls-8" d="M201.88,333.25c.34-13.23-8.09-19.85-17.7-26-9.61,6.13-18,12.75-17.62,26,8.43,9.27,16.37,17.14,17.62,25.57,1.32-8.43,9.27-16.3,17.7-25.57Z"/><path class="cls-9" d="M201.88,333.25c-8.43,9.27-16.38,17.14-17.7,25.57a13.88,13.88,0,0,1,0,4.81c4.25-4.25,9.13-9.06,14-14.36a48.53,48.53,0,0,0,3.7-16Z"/><path class="cls-9" d="M184.18,358.82c-1.25-8.43-9.19-16.3-17.62-25.57a48.48,48.48,0,0,0,3.69,16c4.88,5.3,9.75,10.11,13.93,14.36a18.44,18.44,0,0,1,0-4.81Z"/><path class="cls-7" d="M170.25,349.27a48.48,48.48,0,0,1-3.69-16c-6.69-7.38-13.73-15.6-18.05-25.84a25.79,25.79,0,0,0-.62,10.8c5.22,11.21,13.79,21.8,22.36,31.06Z"/><path class="cls-8" d="M166.56,333.25c-.35-13.23,8-19.85,17.62-26-7.59-4.81-16-9.33-21.31-16.65-6.62,4.39-12.27,9.27-14.36,16.79,4.32,10.24,11.36,18.46,18.05,25.84Z"/><path class="cls-4" d="M148.51,307.41c2.09-7.52,7.74-12.4,14.36-16.79-4.18-5.57-6.55-12.75-5.44-23-.7.63-1.32,1.26-2,1.89-5.85,5.78-9.4,11.7-11.22,17.76a53,53,0,0,0,4.25,20.13Z"/><path class="cls-3" d="M157.43,267.63c-1.11,10.24,1.26,17.42,5.44,23,7.1-4.8,15.39-9,21.31-15.32a28.76,28.76,0,0,1-7.87-16.93,41.77,41.77,0,0,0-10.59,3.69,36.47,36.47,0,0,0-5,3c-1.12.83-2.23,1.67-3.28,2.57Z"/><path class="cls-12" d="M148.51,307.41a53,53,0,0,1-4.25-20.13c-3.13,10.38-1.11,20.9,3.63,30.93a25.79,25.79,0,0,1,.62-10.8Z"/><path class="cls-9" d="M184.18,358.82a18.44,18.44,0,0,0,0,4.81,13.88,13.88,0,0,0,0-4.81Z"/><path class="cls-10" d="M167.88,324.27c2.72-7.6,9.2-12.4,16.3-17,7.66-4.81,16-9.33,21.39-16.65a28.74,28.74,0,0,0,5.5-14.14c-7.73,29.19-39.71,27.59-43.19,47.79Z"/><path class="cls-10" d="M200.34,324.27c-2.71-7.6-9.19-12.4-16.3-17-7.66-4.81-16-9.33-21.38-16.65a28.66,28.66,0,0,1-5.51-14.14c7.73,29.19,39.71,27.59,43.19,47.79Z"/><path class="cls-11" d="M184,307.48l.14-.14a.07.07,0,0,1-.07-.07,4.17,4.17,0,0,1-1-.56c-7.46,4.6-13.73,9.2-15.19,17.56,2.65-7.53,9.06-12.33,16.09-16.79Z"/><path class="cls-11" d="M184.25,307.48l-.14-.14a.07.07,0,0,0,.07-.07,4.46,4.46,0,0,0,1-.56c7.45,4.6,13.72,9.2,15.18,17.56-2.65-7.53-9.05-12.33-16.09-16.79Z"/><path class="cls-2" d="M123.79,232.11a28.69,28.69,0,0,0-6.41,17.48,29.07,29.07,0,0,0,17.55-6.34,40.19,40.19,0,0,0-11.14-11.14Z"/><path class="cls-3" d="M134.93,243.25a29.07,29.07,0,0,1-17.55,6.34c-.28,8.71,2.64,17.56,4.32,26,6.82-1.05,13.58-4.46,20.06-12.4a40.21,40.21,0,0,0-6.83-19.93Z"/><path class="cls-8" d="M121.7,275.58c-1.68-8.43-4.6-17.28-4.32-26-8.64.28-17.49-2.58-25.92-4.25-1.32,9,1.33,18.11,3.35,26.89,8.77,1.95,17.9,4.67,26.89,3.35Z"/><path class="cls-4" d="M141.76,263.18c-6.48,7.94-13.24,11.35-20.06,12.4,1.53,7.73,2.09,15.18-1.75,21.94a53.92,53.92,0,0,0,17.28-11.22c2.93-5.5,4.6-12.26,4.6-20.48,0-.9,0-1.81-.07-2.64Z"/><path class="cls-12" d="M137.23,286.3A53.92,53.92,0,0,1,120,297.52a26.51,26.51,0,0,1-7.17,8.15c10.45-3.76,19.3-9.82,24.45-19.37Z"/><path class="cls-7" d="M120,297.52c-10.31,4.18-21.1,5.08-31.06,5.57A48.66,48.66,0,0,1,75,311.8c12.61-.49,26.2-1.95,37.83-6.13a26.51,26.51,0,0,0,7.17-8.15Z"/><path class="cls-8" d="M88.89,303.09c10-.49,20.75-1.39,31.06-5.57,3.84-6.76,3.28-14.21,1.75-21.94-9,1.32-18.12-1.4-26.89-3.35,2.44,11.15,3.69,21.74-5.92,30.86Z"/><path class="cls-8" d="M88.89,303.09c9.61-9.12,8.36-19.71,5.92-30.86-11.15-2.44-21.74-3.76-30.86,5.85-.63,12.54-.56,23.69-5.57,30.58,6.89-5,18-5,30.51-5.57Z"/><path class="cls-9" d="M88.89,303.09c-12.54.56-23.62.56-30.51,5.57A15.85,15.85,0,0,1,55,312.08c6,0,12.82,0,20-.28a48.66,48.66,0,0,0,13.94-8.71Z"/><path class="cls-9" d="M58.38,308.66c5-6.89,4.94-18,5.57-30.58-3.14,3.28-6,7.81-8.71,14-.28,7.17-.28,14-.28,20a15.85,15.85,0,0,1,3.42-3.42Z"/><path class="cls-7" d="M55.24,292.09c2.72-6.2,5.57-10.73,8.71-14,.49-9.89,1.39-20.76,5.5-31.07a27.63,27.63,0,0,0-8.08,7.25c-4.18,11.63-5.64,25.22-6.13,37.83Z"/><path class="cls-8" d="M64,278.08c9.12-9.61,19.71-8.29,30.86-5.85-2-8.78-4.67-17.9-3.35-26.89-7.73-1.53-15.18-2.09-22,1.67-4.11,10.31-5,21.18-5.5,31.07Z"/><path class="cls-4" d="M69.45,247c6.83-3.76,14.28-3.2,22-1.67,1.05-6.89,4.46-13.65,12.4-20.06-.9-.07-1.81-.14-2.71-.14a42.84,42.84,0,0,0-20.41,4.67A52,52,0,0,0,69.45,247Z"/><path class="cls-3" d="M103.86,225.28c-7.94,6.41-11.35,13.17-12.4,20.06,8.43,1.67,17.28,4.53,25.92,4.25a28.69,28.69,0,0,1,6.41-17.48,40.35,40.35,0,0,0-10.1-5,37.3,37.3,0,0,0-5.65-1.39,28.19,28.19,0,0,0-4.18-.49Z"/><path class="cls-12" d="M69.45,247a52,52,0,0,1,11.29-17.2c-9.62,5.08-15.61,14-19.37,24.45A27.63,27.63,0,0,1,69.45,247Z"/><path class="cls-9" d="M58.38,308.66A15.85,15.85,0,0,0,55,312.08a15.85,15.85,0,0,0,3.42-3.42Z"/><path class="cls-10" d="M71.19,272.72c7.32-3.49,15.33-2.3,23.62-.49,8.77,1.95,17.9,4.67,26.89,3.35a28.55,28.55,0,0,0,13.86-6.13c-26.12,15.11-47.58-8.57-64.37,3.27Z"/><path class="cls-10" d="M94.18,295.64c3.48-7.25,2.3-15.26.49-23.55-2-8.78-4.67-17.9-3.35-26.89a28.55,28.55,0,0,1,6.13-13.86c-15.18,26.12,8.57,47.58-3.27,64.3Z"/><path class="cls-11" d="M94.46,272.16c.07,0,.14.07.21.07v-.14a6.45,6.45,0,0,1-.28-1.11c-8.5-2-16.23-3.14-23.13,1.74,7.18-3.49,15-2.37,23.2-.56Z"/><path class="cls-11" d="M94.74,272.37c-.07-.07-.07-.07-.07-.14h.14a8.59,8.59,0,0,1,1.11.28c2,8.5,3.14,16.23-1.74,23.13,3.41-7.18,2.3-15.05.56-23.27Z"/><path class="cls-2" d="M105.26,176.31a28.79,28.79,0,0,0-16.93,7.87,28.32,28.32,0,0,0,16.93,7.87,42.93,42.93,0,0,0,0-15.74Z"/><path class="cls-3" d="M105.26,192.05a28.32,28.32,0,0,1-16.93-7.87c-6.34,6-10.52,14.21-15.33,21.39,5.58,4.11,12.82,6.48,23,5.43a40.35,40.35,0,0,0,9.27-18.95Z"/><path class="cls-8" d="M73,205.57c4.81-7.18,9-15.4,15.33-21.39C82,178.26,77.81,170,73,162.87c-7.31,5.36-11.84,13.72-16.64,21.31,4.8,7.66,9.33,16,16.64,21.39Z"/><path class="cls-4" d="M96,211c-10.17,1.05-17.41-1.32-23-5.43-4.38,6.54-9.26,12.19-16.71,14.35a53.8,53.8,0,0,0,20.06,4.25c6.06-1.81,12-5.44,17.76-11.22A23.05,23.05,0,0,0,96,211Z"/><path class="cls-12" d="M76.35,224.17a53.8,53.8,0,0,1-20.06-4.25,26.22,26.22,0,0,1-10.87.62c10.1,4.74,20.62,6.76,30.93,3.63Z"/><path class="cls-7" d="M56.29,219.92c-10.24-4.32-18.53-11.36-25.92-18a49,49,0,0,1-16-3.7c9.26,8.57,19.92,17.14,31.07,22.36a26.22,26.22,0,0,0,10.87-.62Z"/><path class="cls-8" d="M30.37,201.88c7.39,6.68,15.68,13.72,25.92,18,7.45-2.16,12.33-7.81,16.71-14.35-7.31-5.37-11.84-13.73-16.64-21.39-6.14,9.61-12.75,18-26,17.7Z"/><path class="cls-8" d="M30.37,201.88c13.24.34,19.85-8.09,26-17.7-6.14-9.61-12.75-18-26-17.62C21.11,175,13.24,182.93,4.81,184.18c8.43,1.32,16.3,9.27,25.56,17.7Z"/><path class="cls-9" d="M30.37,201.88c-9.26-8.43-17.13-16.38-25.56-17.7a13.87,13.87,0,0,1-4.81,0c4.25,4.25,9.06,9.13,14.35,14a49,49,0,0,0,16,3.7Z"/><path class="cls-9" d="M4.81,184.18c8.43-1.25,16.3-9.19,25.56-17.62a48.91,48.91,0,0,0-16,3.69C9.06,175.13,4.25,180,0,184.18a18.43,18.43,0,0,1,4.81,0Z"/><path class="cls-7" d="M14.35,170.25a48.91,48.91,0,0,1,16-3.69c7.39-6.69,15.68-13.73,25.92-18a26,26,0,0,0-10.87-.63c-11.15,5.22-21.81,13.79-31.07,22.36Z"/><path class="cls-8" d="M30.37,166.56c13.24-.35,19.85,8,26,17.62,4.8-7.59,9.33-16,16.64-21.31-4.38-6.62-9.26-12.26-16.71-14.35-10.24,4.31-18.53,11.35-25.92,18Z"/><path class="cls-4" d="M56.29,148.52c7.45,2.09,12.33,7.73,16.71,14.35,5.58-4.18,12.82-6.55,23-5.44a23.05,23.05,0,0,0-1.88-2c-5.78-5.85-11.7-9.4-17.76-11.22a52.46,52.46,0,0,0-20.06,4.26Z"/><path class="cls-3" d="M96,157.43c-10.17-1.11-17.41,1.26-23,5.44,4.81,7.1,9,15.39,15.33,21.31a28.79,28.79,0,0,1,16.93-7.87,38.91,38.91,0,0,0-3.7-10.59,36.4,36.4,0,0,0-3-5A37.89,37.89,0,0,0,96,157.43Z"/><path class="cls-12" d="M56.29,148.52a52.46,52.46,0,0,1,20.06-4.26c-10.31-3.13-20.83-1.11-30.93,3.63a26,26,0,0,1,10.87.63Z"/><path class="cls-9" d="M4.81,184.18a18.43,18.43,0,0,0-4.81,0,13.87,13.87,0,0,0,4.81,0Z"/><path class="cls-10" d="M39.36,167.88c7.59,2.72,12.4,9.2,17,16.3,4.8,7.66,9.33,16,16.64,21.39a28.78,28.78,0,0,0,14.15,5.5C58,203.34,59.56,171.36,39.36,167.88Z"/><path class="cls-10" d="M39.36,200.34c7.59-2.71,12.4-9.19,17-16.3,4.8-7.66,9.33-16,16.64-21.38a28.69,28.69,0,0,1,14.15-5.51C58,164.88,59.56,196.86,39.36,200.34Z"/><path class="cls-11" d="M56.15,184l.14.14a.07.07,0,0,1,.07-.07,8.57,8.57,0,0,1,.62-1c-4.67-7.46-9.26-13.73-17.62-15.19,7.52,2.65,12.33,9.06,16.79,16.09Z"/><path class="cls-11" d="M56.15,184.25l.14-.14a.07.07,0,0,0,.07.07,9.77,9.77,0,0,0,.62,1c-4.67,7.45-9.26,13.72-17.62,15.18,7.52-2.64,12.33-9.05,16.79-16.09Z"/><path class="cls-2" d="M131.59,123.79A28.91,28.91,0,0,0,114,117.38a28.79,28.79,0,0,0,6.41,17.55,41.47,41.47,0,0,0,11.15-11.14Z"/><path class="cls-3" d="M120.44,134.93A28.79,28.79,0,0,1,114,117.38c-8.7-.28-17.48,2.64-26,4.32,1,6.82,4.46,13.58,12.47,20.06a40.41,40.41,0,0,0,19.92-6.83Z"/><path class="cls-8" d="M88.05,121.7c8.5-1.68,17.28-4.6,26-4.32-.27-8.64,2.58-17.49,4.25-25.92-8.91-1.32-18,1.33-26.89,3.35-2,8.78-4.66,17.9-3.34,26.89Z"/><path class="cls-4" d="M100.52,141.76c-8-6.48-11.42-13.24-12.47-20.06-7.73,1.53-15.12,2.09-21.94-1.75a52.87,52.87,0,0,0,11.21,17.21c5.58,3,12.26,4.67,20.48,4.67.91,0,1.81,0,2.72-.07Z"/><path class="cls-12" d="M77.32,137.16A52.87,52.87,0,0,1,66.11,120,26.4,26.4,0,0,1,58,112.78c3.83,10.45,9.82,19.3,19.36,24.38Z"/><path class="cls-7" d="M66.11,120c-4.18-10.31-5.09-21.1-5.58-31.06A48.66,48.66,0,0,1,51.83,75c.48,12.61,2,26.2,6.13,37.83A26.4,26.4,0,0,0,66.11,120Z"/><path class="cls-8" d="M60.53,88.89c.49,10,1.4,20.75,5.58,31.06,6.82,3.84,14.21,3.28,21.94,1.75-1.32-9,1.39-18.11,3.34-26.89-11.14,2.44-21.73,3.69-30.86-5.92Z"/><path class="cls-8" d="M60.53,88.89c9.13,9.61,19.72,8.36,30.86,5.92C93.9,83.66,95.16,73.07,85.54,64,73,63.32,61.86,63.39,55,58.37c5.09,6.9,5,18,5.57,30.52Z"/><path class="cls-9" d="M60.53,88.89C60,76.35,60.05,65.27,55,58.37A17.21,17.21,0,0,1,51.55,55c0,6,0,12.82.28,20a48.66,48.66,0,0,0,8.7,13.94Z"/><path class="cls-9" d="M55,58.37c6.9,5,18,5,30.58,5.58-3.27-3.14-7.8-6-13.93-8.71C64.44,55,57.54,55,51.55,55A13.32,13.32,0,0,1,55,58.37Z"/><path class="cls-7" d="M71.61,55.24C77.74,58,82.27,60.81,85.54,64c9.89.49,20.76,1.39,31.07,5.5a27.59,27.59,0,0,0-7.24-8.08c-11.57-4.18-25.22-5.64-37.76-6.13Z"/><path class="cls-8" d="M85.54,64c9.62,9.12,8.36,19.71,5.85,30.86,8.85-2,18-4.67,26.89-3.35,1.53-7.73,2.09-15.18-1.67-22-10.31-4.11-21.18-5-31.07-5.5Z"/><path class="cls-4" d="M116.61,69.45c3.76,6.83,3.2,14.28,1.67,22,6.9,1.05,13.66,4.46,20.13,12.4,0-.9.08-1.81.08-2.71,0-8.15-1.68-14.91-4.67-20.41a52.14,52.14,0,0,0-17.21-11.29Z"/><path class="cls-3" d="M138.41,103.86c-6.47-7.94-13.23-11.35-20.13-12.4-1.67,8.43-4.52,17.28-4.25,25.92a28.91,28.91,0,0,1,17.56,6.41,42.69,42.69,0,0,0,4.88-10.1,31.31,31.31,0,0,0,1.39-5.65c.28-1.39.41-2.78.55-4.18Z"/><path class="cls-12" d="M116.61,69.45a52.14,52.14,0,0,1,17.21,11.29c-5.09-9.62-13.94-15.61-24.45-19.37a27.59,27.59,0,0,1,7.24,8.08Z"/><path class="cls-9" d="M55,58.37A13.32,13.32,0,0,0,51.55,55,17.21,17.21,0,0,0,55,58.37Z"/><path class="cls-10" d="M90.91,71.19c3.48,7.32,2.36,15.33.48,23.62-2,8.78-4.66,17.9-3.34,26.89a28.7,28.7,0,0,0,6.2,13.86c-15.18-26.12,8.5-47.58-3.34-64.37Z"/><path class="cls-10" d="M68,94.18c7.31,3.48,15.25,2.3,23.54.49,8.85-2,18-4.67,26.89-3.35a28.2,28.2,0,0,1,13.86,6.13C106.23,82.27,84.71,106,68,94.18Z"/><path class="cls-11" d="M91.46,94.46a.26.26,0,0,1-.07.21h.14a6.55,6.55,0,0,1,1.12-.28c2-8.5,3.2-16.23-1.67-23.13,3.41,7.18,2.29,15,.48,23.2Z"/><path class="cls-11" d="M91.25,94.74a.22.22,0,0,1,.14-.07v.14c-.07.35-.14.69-.21,1.11-8.56,2-16.3,3.14-23.19-1.74,7.17,3.41,15.11,2.3,23.26.56Z"/><path class="cls-13" d="M181.81,99.89a81.92,81.92,0,1,1-81.92,81.92,82,82,0,0,1,81.92-81.92Z"/><path class="cls-14" d="M181.81,104.14a77.67,77.67,0,1,1-77.67,77.67,77.65,77.65,0,0,1,77.67-77.67Z"/></svg>